<svg id="visual" viewBox="0 0 960 540" width="960" height="540" xmlns="http://www.w3.org/2000/svg" xmlns:xlink="http://www.w3.org/1999/xlink" version="1.1"><rect x="0" y="0" width="960" height="540" fill="#000000"></rect><path d="M0 193L48 204L96 242L144 149L192 178L240 255L288 211L336 150L384 309L432 316L480 176L528 162L576 224L624 183L672 208L720 232L768 252L816 236L864 218L912 208L960 206L960 541L912 541L864 541L816 541L768 541L720 541L672 541L624 541L576 541L528 541L480 541L432 541L384 541L336 541L288 541L240 541L192 541L144 541L96 541L48 541L0 541Z" fill="#260af5"></path><path d="M0 350L48 313L96 218L144 281L192 219L240 193L288 352L336 281L384 200L432 241L480 212L528 294L576 286L624 356L672 315L720 331L768 264L816 290L864 326L912 250L960 354L960 541L912 541L864 541L816 541L768 541L720 541L672 541L624 541L576 541L528 541L480 541L432 541L384 541L336 541L288 541L240 541L192 541L144 541L96 541L48 541L0 541Z" fill="#0040f6"></path><path d="M0 240L48 364L96 286L144 238L192 322L240 296L288 307L336 359L384 363L432 241L480 254L528 284L576 358L624 330L672 341L720 366L768 258L816 239L864 245L912 292L960 345L960 541L912 541L864 541L816 541L768 541L720 541L672 541L624 541L576 541L528 541L480 541L432 541L384 541L336 541L288 541L240 541L192 541L144 541L96 541L48 541L0 541Z" fill="#0059f1"></path><path d="M0 405L48 351L96 413L144 396L192 361L240 372L288 285L336 384L384 326L432 414L480 370L528 390L576 397L624 386L672 356L720 304L768 385L816 318L864 354L912 338L960 393L960 541L912 541L864 541L816 541L768 541L720 541L672 541L624 541L576 541L528 541L480 541L432 541L384 541L336 541L288 541L240 541L192 541L144 541L96 541L48 541L0 541Z" fill="#006de6"></path><path d="M0 408L48 423L96 441L144 422L192 353L240 356L288 330L336 426L384 367L432 328L480 423L528 440L576 438L624 436L672 434L720 360L768 381L816 337L864 433L912 364L960 432L960 541L912 541L864 541L816 541L768 541L720 541L672 541L624 541L576 541L528 541L480 541L432 541L384 541L336 541L288 541L240 541L192 541L144 541L96 541L48 541L0 541Z" fill="#007cda"></path><path d="M0 377L48 450L96 453L144 451L192 435L240 461L288 426L336 370L384 376L432 438L480 384L528 466L576 400L624 383L672 406L720 459L768 373L816 420L864 430L912 420L960 431L960 541L912 541L864 541L816 541L768 541L720 541L672 541L624 541L576 541L528 541L480 541L432 541L384 541L336 541L288 541L240 541L192 541L144 541L96 541L48 541L0 541Z" fill="#0085c3"></path><path d="M0 484L48 417L96 437L144 445L192 491L240 424L288 448L336 425L384 446L432 420L480 441L528 464L576 438L624 430L672 489L720 483L768 457L816 482L864 467L912 453L960 428L960 541L912 541L864 541L816 541L768 541L720 541L672 541L624 541L576 541L528 541L480 541L432 541L384 541L336 541L288 541L240 541L192 541L144 541L96 541L48 541L0 541Z" fill="#0088a4"></path><path d="M0 502L48 498L96 478L144 512L192 477L240 460L288 469L336 524L384 514L432 503L480 502L528 497L576 479L624 521L672 494L720 502L768 459L816 514L864 514L912 469L960 470L960 541L912 541L864 541L816 541L768 541L720 541L672 541L624 541L576 541L528 541L480 541L432 541L384 541L336 541L288 541L240 541L192 541L144 541L96 541L48 541L0 541Z" fill="#008787"></path></svg>