<svg id="visual" viewBox="0 0 900 600" width="900" height="600" xmlns="http://www.w3.org/2000/svg" xmlns:xlink="http://www.w3.org/1999/xlink" version="1.1"><rect x="0" y="0" width="900" height="600" fill="#000000"></rect><path d="M0 276L53 179L106 189L159 102L212 158L265 191L318 104L371 143L424 226L476 176L529 76L582 181L635 221L688 208L741 212L794 132L847 240L900 237L900 601L847 601L794 601L741 601L688 601L635 601L582 601L529 601L476 601L424 601L371 601L318 601L265 601L212 601L159 601L106 601L53 601L0 601Z" fill="#1f0af5"></path><path d="M0 198L53 185L106 279L159 251L212 181L265 189L318 121L371 178L424 155L476 290L529 213L582 112L635 177L688 259L741 142L794 194L847 273L900 277L900 601L847 601L794 601L741 601L688 601L635 601L582 601L529 601L476 601L424 601L371 601L318 601L265 601L212 601L159 601L106 601L53 601L0 601Z" fill="#0030f5"></path><path d="M0 173L53 302L106 230L159 262L212 208L265 327L318 163L371 317L424 316L476 297L529 249L582 325L635 262L688 271L741 264L794 296L847 240L900 275L900 601L847 601L794 601L741 601L688 601L635 601L582 601L529 601L476 601L424 601L371 601L318 601L265 601L212 601L159 601L106 601L53 601L0 601Z" fill="#0042f2"></path><path d="M0 305L53 254L106 348L159 335L212 267L265 246L318 287L371 255L424 311L476 249L529 335L582 316L635 223L688 227L741 202L794 259L847 195L900 247L900 601L847 601L794 601L741 601L688 601L635 601L582 601L529 601L476 601L424 601L371 601L318 601L265 601L212 601L159 601L106 601L53 601L0 601Z" fill="#0051ee"></path><path d="M0 352L53 350L106 256L159 374L212 382L265 330L318 337L371 281L424 276L476 334L529 285L582 319L635 360L688 262L741 375L794 275L847 286L900 356L900 601L847 601L794 601L741 601L688 601L635 601L582 601L529 601L476 601L424 601L371 601L318 601L265 601L212 601L159 601L106 601L53 601L0 601Z" fill="#005de8"></path><path d="M0 333L53 300L106 403L159 400L212 335L265 295L318 388L371 397L424 344L476 329L529 387L582 320L635 392L688 286L741 356L794 403L847 347L900 384L900 601L847 601L794 601L741 601L688 601L635 601L582 601L529 601L476 601L424 601L371 601L318 601L265 601L212 601L159 601L106 601L53 601L0 601Z" fill="#0067e0"></path><path d="M0 353L53 331L106 321L159 429L212 399L265 426L318 366L371 399L424 342L476 334L529 334L582 355L635 334L688 323L741 384L794 368L847 324L900 347L900 601L847 601L794 601L741 601L688 601L635 601L582 601L529 601L476 601L424 601L371 601L318 601L265 601L212 601L159 601L106 601L53 601L0 601Z" fill="#0071d9"></path><path d="M0 368L53 390L106 451L159 361L212 372L265 411L318 426L371 433L424 446L476 454L529 371L582 362L635 411L688 383L741 388L794 449L847 449L900 386L900 601L847 601L794 601L741 601L688 601L635 601L582 601L529 601L476 601L424 601L371 601L318 601L265 601L212 601L159 601L106 601L53 601L0 601Z" fill="#0077cd"></path><path d="M0 401L53 406L106 479L159 409L212 441L265 425L318 454L371 417L424 491L476 496L529 406L582 461L635 409L688 427L741 431L794 488L847 421L900 475L900 601L847 601L794 601L741 601L688 601L635 601L582 601L529 601L476 601L424 601L371 601L318 601L265 601L212 601L159 601L106 601L53 601L0 601Z" fill="#007abd"></path><path d="M0 488L53 472L106 443L159 486L212 483L265 464L318 525L371 446L424 489L476 491L529 447L582 511L635 481L688 449L741 465L794 525L847 500L900 501L900 601L847 601L794 601L741 601L688 601L635 601L582 601L529 601L476 601L424 601L371 601L318 601L265 601L212 601L159 601L106 601L53 601L0 601Z" fill="#007cab"></path><path d="M0 552L53 509L106 537L159 490L212 519L265 543L318 538L371 511L424 495L476 502L529 536L582 510L635 550L688 543L741 546L794 513L847 544L900 492L900 601L847 601L794 601L741 601L688 601L635 601L582 601L529 601L476 601L424 601L371 601L318 601L265 601L212 601L159 601L106 601L53 601L0 601Z" fill="#007c98"></path><path d="M0 534L53 558L106 527L159 535L212 578L265 528L318 567L371 573L424 532L476 537L529 527L582 538L635 553L688 543L741 551L794 539L847 545L900 574L900 601L847 601L794 601L741 601L688 601L635 601L582 601L529 601L476 601L424 601L371 601L318 601L265 601L212 601L159 601L106 601L53 601L0 601Z" fill="#007b87"></path></svg>