<svg id="visual" viewBox="0 0 900 600" width="900" height="600" xmlns="http://www.w3.org/2000/svg" xmlns:xlink="http://www.w3.org/1999/xlink" version="1.1"><rect x="0" y="0" width="900" height="600" fill="#000000"></rect><path d="M0 408L8.3 407.8C16.7 407.7 33.3 407.3 50 408C66.7 408.7 83.3 410.3 100 413.5C116.7 416.7 133.3 421.3 150 394.3C166.7 367.3 183.3 308.7 200 312.3C216.7 316 233.3 382 250 384.3C266.7 386.7 283.3 325.3 300 321C316.7 316.7 333.3 369.3 350 392.2C366.7 415 383.3 408 400 385.2C416.7 362.3 433.3 323.7 450 301.3C466.7 279 483.3 273 500 267.7C516.7 262.3 533.3 257.7 550 255.3C566.7 253 583.3 253 600 254.8C616.7 256.7 633.3 260.3 650 293.7C666.7 327 683.3 390 700 419C716.7 448 733.3 443 750 420.3C766.7 397.7 783.3 357.3 800 362.3C816.7 367.3 833.3 417.7 850 422.8C866.7 428 883.3 388 891.7 368L900 348" fill="none" stroke-linecap="round" stroke-linejoin="miter" stroke="#05D0EB" stroke-width="40"></path></svg>